<svg id="Layer_1" data-name="Layer 1" xmlns="http://www.w3.org/2000/svg" viewBox="0 0 452.8 161.51"><defs><style>.cls-1{fill:#8dabd4;}.cls-2{fill:#a4bddc;}.cls-3{fill:#4d7dbb;}.cls-4{fill:#7a9cca;}.cls-5{fill:#638dc2;}.cls-6{fill:#386eb0;}.cls-7{fill:#205ea9;}.cls-8{fill:#dd3d3a;}.cls-9{fill:#1d3052;}</style></defs><path class="cls-1" d="M92.48,53.28a27.17,27.17,0,0,1,12,12l18.65-7.71a47.23,47.23,0,0,0-22.9-22.93Z"/><path class="cls-2" d="M106.19,86.26,124.72,94a47.2,47.2,0,0,0,0-32.41L106.2,69.22A27.27,27.27,0,0,1,106.19,86.26Z"/><path class="cls-3" d="M53.83,69.18,35.29,61.49a47.18,47.18,0,0,0,0,32.4l18.54-7.66A27.3,27.3,0,0,1,53.83,69.18Z"/><path class="cls-4" d="M71.5,51.53a26.93,26.93,0,0,1,17,0L96.24,33a47.12,47.12,0,0,0-32.4,0Z"/><path class="cls-5" d="M55.57,65.25a27.17,27.17,0,0,1,12-12L59.87,34.63A47.13,47.13,0,0,0,36.94,57.52Z"/><path class="cls-6" d="M67.54,102.16a27.14,27.14,0,0,1-12-12L36.91,97.86a47.19,47.19,0,0,0,22.9,22.93Z"/><path class="cls-7" d="M88.51,103.92a27.27,27.27,0,0,1-17,0l-7.69,18.54a46.4,46.4,0,0,0,32.4,0Z"/><path class="cls-8" d="M99.1,87.46c-3.13,4.42-4.76,5.91-9.52,8.94l14.29,32.69c12.82-2.52,23.34-9.84,28-27.69Z"/><path class="cls-9" d="M180.87,39.22c8.29,0,15.69,6.07,15.69,15.91a15.74,15.74,0,0,1-3.74,10.54l3.65,4-3.91,3.35-3.74-4.13A16.16,16.16,0,0,1,180.87,71a15.36,15.36,0,0,1-15.66-15.87C165.21,45.29,172.61,39.22,180.87,39.22Zm0,26a10,10,0,0,0,3.91-.78L180,59.22l4-3.4,4.77,5.33a10.7,10.7,0,0,0,1.68-6.06c0-6.88-4.81-10.15-9.54-10.15s-9.51,3.27-9.51,10.15S176.18,65.24,180.87,65.24Z"/><path class="cls-9" d="M214.92,68.08c-1.16,2-3.61,2.83-5.85,2.83-5.11,0-8-3.74-8-8.34V49.2h5.72V61.41c0,2.36,1.21,4.26,3.87,4.26a3.82,3.82,0,0,0,4-4.17V49.2h5.72V66.53a36.6,36.6,0,0,0,.21,3.82h-5.46A15.28,15.28,0,0,1,214.92,68.08Z"/><path class="cls-9" d="M231.26,58.18l5.2-.77c1.21-.17,1.59-.77,1.59-1.5,0-1.51-1.16-2.76-3.56-2.76a3.77,3.77,0,0,0-4.05,3.44l-5.07-1.07c.34-3.31,3.4-7,9.07-7,6.71,0,9.2,3.79,9.2,8V67a23.41,23.41,0,0,0,.26,3.35h-5.24a14.18,14.18,0,0,1-.22-2.53A7.07,7.07,0,0,1,232.21,71c-4.52,0-7.27-3.06-7.27-6.37C224.94,60.81,227.73,58.7,231.26,58.18Zm6.79,3.62v-.95l-4.77.73c-1.46.22-2.62,1-2.62,2.67a2.48,2.48,0,0,0,2.75,2.45C235.82,66.7,238.05,65.54,238.05,61.8Z"/><path class="cls-9" d="M249.32,70.35V39.22H255V70.35Z"/><path class="cls-9" d="M263.73,38.71a3.53,3.53,0,1,1-3.53,3.57A3.52,3.52,0,0,1,263.73,38.71Zm-2.84,31.64V49.2h5.72V70.35Z"/><path class="cls-9" d="M279.89,49.2h4.26v5.07h-4.26v8.86c0,1.85.86,2.45,2.5,2.45a8,8,0,0,0,1.76-.17v4.73a8.66,8.66,0,0,1-3.23.51c-4.12,0-6.7-2.45-6.7-6.53V54.27h-3.83V49.2h1.07a3,3,0,0,0,3.27-3.36v-3h5.16Z"/><path class="cls-9" d="M290.34,78.7l5-11-9-18.49h6.41l5.63,12.38,5.21-12.38h6.1L296.41,78.7Z"/><path class="cls-9" d="M179.75,94.5v24.85h-6V94.5h-9.63V88.87h25.24V94.5Z"/><path class="cls-9" d="M202.37,103.87a9.4,9.4,0,0,0-1.72-.17c-2.93,0-5.46,1.42-5.46,6v9.67h-5.72V98.2H195v3.14c1.29-2.8,4.22-3.31,6-3.31.48,0,.91,0,1.34.08Z"/><path class="cls-9" d="M211.22,107.19l5.21-.78c1.2-.17,1.59-.77,1.59-1.5,0-1.51-1.16-2.76-3.57-2.76a3.75,3.75,0,0,0-4,3.44l-5.08-1.07c.35-3.31,3.4-7,9.08-7,6.7,0,9.2,3.79,9.2,8V116a23.41,23.41,0,0,0,.26,3.35h-5.25a14.09,14.09,0,0,1-.22-2.53,7.07,7.07,0,0,1-6.23,3.14c-4.52,0-7.27-3.06-7.27-6.37C204.9,109.81,207.7,107.7,211.22,107.19Zm6.8,3.61v-1l-4.78.73c-1.46.22-2.62,1-2.62,2.67a2.48,2.48,0,0,0,2.75,2.45C215.78,115.7,218,114.54,218,110.8Z"/><path class="cls-9" d="M235,119.35h-5.72V98.2h5.55v2.62a7,7,0,0,1,6.11-3.18c5.24,0,7.65,3.74,7.65,8.38v13.33h-5.72V107c0-2.36-1.16-4.21-3.91-4.21-2.5,0-4,1.93-4,4.39Z"/><path class="cls-9" d="M257.71,112.39c.12,1.68,1.37,3.22,3.87,3.22,1.89,0,2.79-1,2.79-2.1,0-1-.64-1.72-2.28-2.07l-2.79-.64c-4.09-.91-5.94-3.36-5.94-6.32,0-3.79,3.36-6.93,7.91-6.93,6,0,8.05,3.83,8.3,6.11l-4.77,1.07a3.22,3.22,0,0,0-3.48-2.83c-1.51,0-2.71.9-2.71,2.1,0,1,.77,1.68,1.93,1.9l3,.64c4.17.86,6.28,3.4,6.28,6.49,0,3.44-2.66,7-8.21,7-6.37,0-8.56-4.13-8.82-6.54Z"/><path class="cls-9" d="M274.48,119.35V88.22h5.71v31.13Z"/><path class="cls-9" d="M291.12,107.19l5.2-.78c1.2-.17,1.59-.77,1.59-1.5,0-1.51-1.16-2.76-3.57-2.76a3.76,3.76,0,0,0-4,3.44l-5.07-1.07c.34-3.31,3.39-7,9.07-7,6.71,0,9.2,3.79,9.2,8V116a23.41,23.41,0,0,0,.26,3.35h-5.25a14.17,14.17,0,0,1-.21-2.53,7.1,7.1,0,0,1-6.24,3.14c-4.51,0-7.27-3.06-7.27-6.37C284.79,109.81,287.59,107.7,291.12,107.19Zm6.79,3.61v-1l-4.77.73c-1.47.22-2.63,1-2.63,2.67a2.49,2.49,0,0,0,2.76,2.45C295.67,115.7,297.91,114.54,297.91,110.8Z"/><path class="cls-9" d="M316.44,98.2h4.26v5.07h-4.26v8.86c0,1.85.86,2.45,2.5,2.45a8.09,8.09,0,0,0,1.76-.17v4.73a8.6,8.6,0,0,1-3.23.52c-4.12,0-6.7-2.46-6.7-6.54v-9.85h-3.83V98.2H308a3,3,0,0,0,3.27-3.36v-3h5.16Z"/><path class="cls-9" d="M328.14,87.71a3.53,3.53,0,1,1-3.53,3.57A3.53,3.53,0,0,1,328.14,87.71Zm-2.84,31.64V98.2H331v21.15Z"/><path class="cls-9" d="M357.76,108.78a11.09,11.09,0,1,1-11.09-11.23A10.86,10.86,0,0,1,357.76,108.78Zm-5.71,0c0-4-2.58-6-5.38-6s-5.37,2-5.37,6,2.58,6,5.37,6S352.05,112.78,352.05,108.78Z"/><path class="cls-9" d="M368,119.35h-5.72V98.2h5.55v2.62A7,7,0,0,1,374,97.64c5.24,0,7.65,3.74,7.65,8.38v13.33h-5.72V107c0-2.36-1.16-4.21-3.91-4.21-2.5,0-4,1.93-4,4.39Z"/><path class="cls-9" d="M390.75,112.39c.13,1.68,1.37,3.22,3.87,3.22,1.89,0,2.79-1,2.79-2.1,0-1-.64-1.72-2.28-2.07l-2.79-.64c-4.09-.91-5.94-3.36-5.94-6.32,0-3.79,3.36-6.93,7.91-6.93,6,0,8.05,3.83,8.3,6.11l-4.77,1.07a3.22,3.22,0,0,0-3.48-2.83c-1.51,0-2.71.9-2.71,2.1,0,1,.77,1.68,1.93,1.9l3,.64c4.17.86,6.28,3.4,6.28,6.49,0,3.44-2.66,7-8.21,7-6.37,0-8.56-4.13-8.82-6.54Z"/></svg>